<?xml version="1.0" encoding="UTF-8"?>
<svg id="Layer_1" data-name="Layer 1" xmlns="http://www.w3.org/2000/svg" width="24" height="24" viewBox="0 0 24 24"><path d="M6.22,11A1.48,1.48,0,0,0,4.65,9.7c-1.13,0-1.87.86-1.87,2.38s.75,2.38,1.86,2.38a1.49,1.49,0,0,0,1.58-1.23H7.78a3,3,0,0,1-3.17,2.58c-1.94,0-3.39-1.36-3.39-3.74S2.69,8.34,4.61,8.34A3,3,0,0,1,7.78,11Z"/><path d="M13.74,11A1.48,1.48,0,0,0,12.17,9.7c-1.13,0-1.87.86-1.87,2.38s.76,2.38,1.86,2.38a1.49,1.49,0,0,0,1.58-1.23H15.3a3,3,0,0,1-3.16,2.58c-2,0-3.4-1.36-3.4-3.74s1.47-3.74,3.4-3.74A3,3,0,0,1,15.3,11Z"/><path d="M21.26,11A1.47,1.47,0,0,0,19.69,9.7c-1.12,0-1.86.86-1.86,2.38s.75,2.38,1.85,2.38a1.49,1.49,0,0,0,1.58-1.23h1.56a3,3,0,0,1-3.16,2.58c-1.95,0-3.39-1.36-3.39-3.74s1.46-3.74,3.39-3.74A3,3,0,0,1,22.82,11Z"/></svg>