<svg id="Layer_1" data-name="Layer 1" xmlns="http://www.w3.org/2000/svg" width="24" height="24" viewBox="0 0 24 24"><path d="M21.5,14Zm-19,0Zm0,0Zm19,0Zm-19,0Zm19,0Zm-19,0a3.48,3.48,0,0,1,2.71-3.39l.31-.07.07-.31A3.48,3.48,0,0,1,9,7.5a3.51,3.51,0,0,0-3.45,3A3.51,3.51,0,0,0,2.5,14Zm19,0Zm0,0a3.48,3.48,0,0,0-1.71-3A3.46,3.46,0,0,1,21.5,14Zm-3-3.45a2.17,2.17,0,0,0,0-.25l0,.24.18,0Zm-.13-.69a4.51,4.51,0,0,0-4.3-3.34A4.49,4.49,0,0,1,18.35,9.84ZM10.62,7.9l.07,0,.24-.22A4.46,4.46,0,0,1,14,6.5a4.49,4.49,0,0,0-2.8,1,3.44,3.44,0,0,0-.49.45ZM10,7.66A3.57,3.57,0,0,0,9,7.5a3.52,3.52,0,0,1,1,.16ZM9,7.5Zm0,0Zm0,0Zm0,0Zm0,0Zm5.06-1Zm0,0Zm0,0Zm0,0Zm0,0Zm0,0Zm0,0Zm0,0Zm0,0Z"/><path d="M14,6a5,5,0,0,0-3.41,1.34A3.84,3.84,0,0,0,9,7a4,4,0,0,0-3.9,3.1A4,4,0,0,0,6,18H18a4,4,0,0,0,.92-7.89A5,5,0,0,0,14,6ZM10.8,8.61a3.72,3.72,0,0,1,.7-.73A4,4,0,0,1,18,11a3,3,0,0,1,0,6H6a3,3,0,0,1,0-6A3,3,0,0,1,9,8a2.91,2.91,0,0,1,.89.14,2.81,2.81,0,0,1,.91.47Z"/><polygon points="17 11 16 11 16 16 17 16 17 11 17 11"/><rect x="11" y="13" width="8" height="1"/><polygon points="19 13 11 13 11 14 19 14 19 13 19 13"/></svg>