<?xml version="1.0" encoding="UTF-8"?>
<svg id="Layer_1" data-name="Layer 1" xmlns="http://www.w3.org/2000/svg" width="24" height="24" viewBox="0 0 24 24"><defs><style>.cls-1{fill:#fff;}</style></defs><rect class="cls-1" x="7.5" y="6.5" width="1" height="5"/><path d="M8,7V7M9,6H7v6H9V6Z"/><rect class="cls-1" x="9.5" y="12.5" width="1" height="5"/><path d="M10,13v0m1-1H9v6h2V12Z"/><rect class="cls-1" x="11.5" y="6.5" width="1" height="5"/><path d="M12,7V7m1-1H11v6h2V6Z"/><rect class="cls-1" x="13.5" y="12.5" width="1" height="5"/><path d="M14,13v0m1-1H13v6h2V12Z"/><rect class="cls-1" x="15.5" y="6.5" width="1" height="5"/><path d="M16,7V7m1-1H15v6h2V6Z"/></svg>