<svg id="Layer_1" data-name="Layer 1" xmlns="http://www.w3.org/2000/svg" width="24" height="24" viewBox="0 0 24 24"><polygon points="11.36 3.5 11.36 7.71 7.64 5.64 11.36 3.5"/><polygon points="16.36 5.64 12.64 7.71 12.64 3.5 16.36 5.64"/><polygon points="16.91 6.79 16.91 10.79 13.33 8.79 16.91 6.79"/><polygon points="7.09 6.79 10.68 8.79 7.09 10.79 7.09 6.79"/><polygon points="11.36 16.3 11.36 20.5 7.64 18.36 11.36 16.3"/><polygon points="16.36 18.36 12.64 20.5 12.64 16.3 16.36 18.36"/><polygon points="16.91 13.21 16.91 17.2 13.32 15.21 16.91 13.21"/><polygon points="11.36 9.88 11.36 14.12 7.56 12 11.36 9.88"/><polygon points="16.44 12 12.64 14.12 12.64 9.88 16.44 12"/></svg>