<?xml version="1.0" encoding="UTF-8"?>
<svg id="Layer_1" data-name="Layer 1" xmlns="http://www.w3.org/2000/svg" width="24" height="24" viewBox="0 0 24 24"><defs><style>.cls-1{fill:#fff;}</style></defs><polygon class="cls-1" points="8.5 16.5 8.5 7.5 5.5 7.5 5.5 6.5 12.5 6.5 12.5 7.5 9.5 7.5 9.5 16.5 8.5 16.5"/><path d="M9,7V7m4-1H5V8H8v9h2V8h3V6Z"/><circle class="cls-1" cx="4" cy="12" r="0.5"/><path d="M4,11a1,1,0,1,0,1,1,1,1,0,0,0-1-1Z"/><circle class="cls-1" cx="14" cy="12" r="0.5"/><path d="M14,11a1,1,0,1,0,1,1,1,1,0,0,0-1-1Z"/><circle class="cls-1" cx="17" cy="12" r="0.5"/><path d="M17,11a1,1,0,1,0,1,1,1,1,0,0,0-1-1Z"/><circle class="cls-1" cx="20" cy="12" r="0.5"/><path d="M20,11a1,1,0,1,0,1,1,1,1,0,0,0-1-1Z"/></svg>