<?xml version="1.0" encoding="UTF-8"?>
<svg id="Layer_1" data-name="Layer 1" xmlns="http://www.w3.org/2000/svg" width="24" height="24" viewBox="0 0 24 24"><defs><style>.cls-1{fill:#e20000;}.cls-2{fill:#2cff00;opacity:0.5;}</style></defs><path d="M12,4a8,8,0,1,0,8,8A8,8,0,0,0,12,4Zm4,8.46a2.36,2.36,0,0,1-.08.45s0,0,0,0a2,2,0,0,1-.09.33,2.33,2.33,0,0,1-.11.28,1.89,1.89,0,0,1-.11.25,1.09,1.09,0,0,1-.08.15,1.61,1.61,0,0,1-.17.28l-.23.31a3.58,3.58,0,0,1-.26.29l-.29.26-.31.23a1.94,1.94,0,0,1-.33.2,3.36,3.36,0,0,1-.71.3l-.33.09-.12,0-.32.05h0L12,16h-.51l-.2,0-.19,0,0,0h-.14l-.15,0-.22-.08-.12-.05a1.87,1.87,0,0,1-.32-.15,2.63,2.63,0,0,1-.33-.2,3.86,3.86,0,0,1-1.09-1.09,1.94,1.94,0,0,1-.2-.33,3.36,3.36,0,0,1-.3-.71c0-.11-.06-.22-.08-.33A3.25,3.25,0,0,1,8,12.41c0-.14,0-.27,0-.41s0-.27,0-.41a8,8,0,0,1,5.91-7.32,3.88,3.88,0,0,0-.22.46A7.74,7.74,0,0,0,13,8v.13l.07,0a3.75,3.75,0,0,1,.47.17h0a3.74,3.74,0,0,1,.45.22h0c.14.08.28.18.42.28a4.36,4.36,0,0,1,.4.35,1.93,1.93,0,0,1,.27.3,3.43,3.43,0,0,1,.24.33,2.33,2.33,0,0,1,.2.34,2.09,2.09,0,0,1,.14.3c.05.11.09.22.13.33A4,4,0,0,1,16,12,3.44,3.44,0,0,1,16,12.46Z"/><path class="cls-1" d="M14,4.24l0,0,.07,0Z"/><path class="cls-2" d="M9.17,14.83a3,3,0,0,1-.49-.6A4.13,4.13,0,0,0,9.17,14.83Z"/><path class="cls-2" d="M9.77,15.32a3.33,3.33,0,0,1-.6-.48h0A4.13,4.13,0,0,0,9.77,15.32Z"/><path class="cls-2" d="M12,16a3.24,3.24,0,0,0,.44,0L12,16Z"/><path class="cls-2" d="M10.1,15.52a4,4,0,0,0,1.38.44A3.78,3.78,0,0,1,10.1,15.52Z"/><path class="cls-2" d="M11.51,16,12,16A3.25,3.25,0,0,1,11.51,16Z"/><path class="cls-2" d="M11.48,16h0Z"/><path class="cls-2" d="M13.19,15.82l-.11,0-.22.05Z"/><path class="cls-2" d="M14.83,14.83h0a2.26,2.26,0,0,1-.29.25Z"/><path class="cls-2" d="M14,4.25l-.07,0,0,0Z"/></svg>