<svg id="Layer_1" data-name="Layer 1" xmlns="http://www.w3.org/2000/svg" width="24" height="24" viewBox="0 0 24 24"><polygon points="3 8 3 16 7 12 3 8"/><path d="M9.57,13.27c0-1.72.95-2.82,2.33-2.82a1.66,1.66,0,0,1,1.58.94h.07V8.71h.84V16h-.81v-.84h-.1a1.68,1.68,0,0,1-1.59,1C10.52,16.1,9.57,15,9.57,13.27Zm4,0c0-1.23-.54-2-1.57-2s-1.59.89-1.59,2S11,15.35,12,15.35,13.57,14.49,13.57,13.26Z"/><path d="M15.65,13.28a2.59,2.59,0,0,1,2.68-2.83,2.23,2.23,0,0,1,2.45,2.09H19.35a1,1,0,0,0-1-.91c-.7,0-1.16.59-1.16,1.63s.46,1.63,1.16,1.63a1,1,0,0,0,1-.91h1.43a2.22,2.22,0,0,1-2.44,2.11A2.57,2.57,0,0,1,15.65,13.28Z"/></svg>